<svg xmlns="http://www.w3.org/2000/svg" width="512" height="512" viewBox="0 0 400 400"><g fill-rule="evenodd"><path d="M67.6 133.407v79.006l20.167 20.16c11.092 11.088 20.272 20.055 20.4 19.927.128-.129.233.067.233.433 0 .367.143.667.318.667.174 0 2.019 1.716 4.1 3.814 6.132 6.183 14.279 14.186 18.759 18.43a345.056 345.056 0 0 1 7.887 7.756c2.041 2.09 4.256 4.34 4.921 5 .666.66 12.542 12.495 26.392 26.3 13.849 13.805 25.46 25.1 25.802 25.1.551 0 .621-1.823.621-16.197v-16.196l1.259-1.204 1.26-1.203h5.34c3.294 0 5.341-.153 5.341-.4 0-.229 1.2-.4 2.8-.4 1.6 0 2.8-.171 2.8-.4 0-.22.72-.4 1.6-.4.88 0 1.6-.18 1.6-.4 0-.22.405-.4.9-.4.987-.001 3.1-1.613 3.1-2.366 0-.261.28-1.015.622-1.676.85-1.644 1.081-3.074 1.268-7.858.089-2.255.33-4.1.536-4.1.224 0 .374-4.808.374-11.976 0-7.553.148-12.068.4-12.224.538-.332.524-5.8-.014-5.8-.522 0-14.602 13.627-18.245 17.658-1.603 1.774-7.467 7.142-7.801 7.142-.408 0-4.127-3.473-8.473-7.912-7.008-7.159-13.067-13.222-13.067-13.076 0 .094-1.395-1.273-3.1-3.037-6.991-7.231-13.3-13.584-13.3-13.394 0 .112-1.575-1.421-3.5-3.405-4.171-4.301-10.812-10.958-16.834-16.876-2.407-2.365-4.304-4.3-4.216-4.3.089 0-1.327-1.501-3.145-3.337-1.818-1.835-3.362-3.293-3.432-3.239-.07.053-2.622-2.451-5.671-5.564a1710.15 1710.15 0 0 0-7.173-7.291l-1.629-1.63v-71.437c0-39.29-.109-71.721-.243-72.069-.218-.568-2.758-.633-24.6-.633H67.6v79.007m216.667-78.74c-.147.146-.267 29.049-.267 64.228 0 68.799-.111 65.105 1.948 65.105.443 0 .916.18 1.052.4.136.22.766.4 1.4.4.634 0 1.264.18 1.4.4.136.22 1.306.4 2.6.4s2.464.18 2.6.4c.136.22.963.4 1.837.4 1.281 0 1.859.27 2.976 1.387l1.387 1.386v36.041l-1.349 1.31c-.742.721-1.535 1.248-1.763 1.172-.228-.076-.532.051-.675.283-.143.231-1.499.421-3.013.421-1.514 0-2.864.18-3 .4-.136.22-.957.4-1.824.4-.867 0-1.576.18-1.576.4 0 .22-.439.4-.976.4-.537 0-1.088.18-1.224.4-.136.22-.597.4-1.024.4-.427 0-.776.18-.776.4 0 .22-.36.4-.8.4-.44 0-.8.18-.8.4 0 .22-.32.4-.712.4-.391 0-.971.36-1.288.8-.317.44-.767.8-.999.8-.505 0-1.801 1.443-1.801 2.005 0 .217-.153.395-.339.395-.382 0-1.916 3.215-1.761 3.692.055.169-.08.308-.3.308-.22 0-.4.439-.4.976 0 .537-.18 1.088-.4 1.224-.22.136-.4.687-.4 1.224 0 .537-.18.976-.4.976-.22 0-.4.72-.4 1.6 0 .88-.18 1.6-.4 1.6-.22 0-.4.889-.4 1.976s-.18 2.088-.4 2.224c-.22.136-.4 1.576-.4 3.2s-.18 3.064-.4 3.2c-.624.386-.534 15 .093 15 .271 0 4.906-4.506 10.3-10.014 5.394-5.507 19.212-19.452 30.707-30.987l20.9-20.973v-77.98c0-42.889-.109-78.265-.243-78.613-.253-.66-48.037-1.02-48.69-.366" fill="#bc6ccc"/><path d="M200.1 71.065c-.71.286-.729 33.746-.02 34.455.331.331 2.368.48 6.576.48 3.353 0 6.19.15 6.303.334.113.183 1.334.374 2.712.424 1.378.05 2.691.244 2.917.432.227.188.55.344.719.346 1.767.021 4.089 1.029 5.213 2.264 1.626 1.785 2.262 2.6 2.031 2.6-.133 0 .038.428.38.952.343.523.665 1.963.715 3.2.05 1.236.24 2.248.422 2.248.183 0 .332 2.394.332 5.32 0 3.702.152 5.484.5 5.859.406.437.388.479-.1.221s-.506-.216-.1.221c.368.397.5 2.832.5 9.235 0 5.367.153 8.791.4 8.944.241.149.4 2.93.4 7s.159 6.851.4 7c.223.138.4 2.004.4 4.224 0 2.384.16 3.976.4 3.976.222 0 .4 1.059.4 2.376 0 1.307.18 2.488.4 2.624.22.136.4.957.4 1.824 0 .867.18 1.576.4 1.576.22 0 .4.54.4 1.2 0 .66.18 1.2.4 1.2.22 0 .4.54.4 1.2 0 .66.18 1.2.4 1.2.22 0 .4.435.4.967 0 .531.188 1.029.418 1.106.23.076.448.541.485 1.033.037.492.209.894.382.894.173 0 .315.268.315.597 0 .328.36.821.8 1.096.44.275.8.816.8 1.203 0 .387.18.704.4.704.22 0 .4.243.4.541 0 .297.539 1.105 1.198 1.794.659.69 1.244 1.481 1.3 1.759.056.278.642 1.072 1.302 1.764s1.465 1.637 1.789 2.101c.324.464.92.949 1.324 1.077s1.53 1.028 2.501 1.999c.971.971 2.04 1.765 2.375 1.765.336 0 .611.141.611.314 0 .172.495.617 1.1.989 2.341 1.436 2.287 1.367 1.593 2.061-.35.35-.92.636-1.268.636s-.933.351-1.3.78c-.367.428-.793.702-.945.607-.153-.094-.839.365-1.525 1.021-.686.656-1.389 1.192-1.562 1.192-.397 0-4.893 4.71-4.893 5.125 0 .17-.63.976-1.4 1.793-.77.816-1.4 1.753-1.4 2.083 0 .329-.18.599-.4.599-.22 0-.4.32-.4.712 0 .391-.36.971-.8 1.288-.44.317-.8.897-.8 1.288 0 .392-.135.713-.3.715-.401.004-1.3 1.978-1.3 2.853 0 .383-.18.808-.4.944-.22.136-.4.597-.4 1.024 0 .427-.18.776-.4.776-.22 0-.4.45-.4 1s-.18 1-.4 1c-.22 0-.4.529-.4 1.176 0 .647-.18 1.288-.4 1.424-.22.136-.4.967-.4 1.847 0 .965-.159 1.502-.4 1.353-.25-.154-.4.655-.4 2.153 0 1.32-.18 2.511-.4 2.647-.223.138-.4 2.004-.4 4.224 0 2.187-.164 3.976-.364 3.976-.202 0-.387 2.882-.416 6.457-.029 3.551-.225 6.779-.436 7.173-.22.412-.384 5.766-.384 12.567 0 7.798-.137 11.766-.4 11.603-.255-.157-.4.996-.4 3.176 0 2.016-.164 3.424-.4 3.424-.22 0-.4.529-.4 1.176 0 .647-.18 1.288-.4 1.424-.22.136-.4.687-.4 1.224 0 .537-.18.976-.4.976-.22 0-.4.341-.4.758 0 1.301-3.115 4.042-4.595 4.042-.333 0-.605.18-.605.4 0 .22-.72.4-1.6.4-.88 0-1.6.18-1.6.4 0 .225-1.125.4-2.576.4-1.417 0-2.688.18-2.824.4-.146.237-2.604.4-6.024.4H200.4V344l6.7-.006c4.474-.004 6.501-.135 6.1-.394-.401-.259 1.626-.39 6.1-.394 4.196-.004 6.7-.155 6.7-.406 0-.229 1.2-.4 2.8-.4 1.54 0 2.8-.154 2.8-.342 0-.188 1.188-.453 2.64-.589 2.549-.238 4.804-.785 6.255-1.518.382-.193.967-.351 1.3-.351.333 0 .605-.18.605-.4 0-.22.343-.4.762-.4.907 0 4.038-1.608 4.038-2.074 0-.179.36-.326.8-.326.44 0 .8-.168.8-.373s.369-.49.82-.633c.451-.143 1.432-.873 2.18-1.621.748-.748 1.594-1.408 1.88-1.466.671-.138 3.52-3.17 3.52-3.747 0-.243.511-.976 1.135-1.629.624-.652 1.387-1.759 1.697-2.459.31-.7.699-1.272.866-1.272.166 0 .302-.27.302-.6 0-.33.18-.6.4-.6.22 0 .4-.36.4-.8 0-.44.18-.8.4-.8.22 0 .4-.45.4-1s.18-1 .4-1c.22 0 .4-.54.4-1.2 0-.66.18-1.2.4-1.2.22 0 .4-.72.4-1.6 0-.88.18-1.6.4-1.6.22 0 .4-.9.4-2s.18-2 .4-2c.24 0 .4-1.6.4-4s.16-4 .4-4c.257 0 .4-3.992.4-11.176 0-7.02.149-11.269.4-11.424.251-.155.4-4.263.4-11s.149-10.845.4-11c.22-.136.4-1.396.4-2.8s.18-2.664.4-2.8c.22-.136.4-1.137.4-2.224 0-1.087.18-1.976.4-1.976.22 0 .4-.72.4-1.6 0-.88.18-1.6.4-1.6.22 0 .4-.439.4-.976 0-.537.18-1.088.4-1.224.22-.136.4-.597.4-1.024 0-.427.18-.776.4-.776.22 0 .4-.319.4-.709 0-1.614 5.59-8.491 6.901-8.491.287 0 .782-.36 1.099-.8.317-.44.897-.8 1.288-.8.392 0 .712-.18.712-.4 0-.22.36-.4.8-.4.44 0 .8-.18.8-.4 0-.22.54-.4 1.2-.4.66 0 1.2-.18 1.2-.4 0-.22.72-.4 1.6-.4.88 0 1.6-.18 1.6-.4 0-.22.675-.401 1.5-.403.825-.001 2.715-.117 4.2-.258l2.7-.255V189.6h-2.376c-1.307 0-2.488-.18-2.624-.4-.136-.22-1.227-.4-2.424-.4-1.197 0-2.176-.18-2.176-.4 0-.22-.63-.4-1.4-.4-.77 0-1.4-.18-1.4-.4 0-.22-.54-.4-1.2-.4-.66 0-1.2-.18-1.2-.4 0-.22-.36-.4-.8-.4-.44 0-.8-.18-.8-.4 0-.22-.273-.4-.606-.4-.762 0-6.594-5.789-6.594-6.545 0-.306-.27-.781-.6-1.055-.33-.274-.6-.746-.6-1.049 0-.303-.18-.551-.4-.551-.22 0-.4-.36-.4-.8 0-.44-.18-.8-.4-.8-.22 0-.4-.36-.4-.8 0-.44-.18-.8-.4-.8-.22 0-.4-.439-.4-.976 0-.537-.18-1.088-.4-1.224-.22-.136-.4-.597-.4-1.024 0-.427-.18-.776-.4-.776-.22 0-.4-.774-.4-1.72s-.167-1.891-.372-2.1c-.588-.601-.865-6.455-1.063-22.48-.115-9.301-.331-14.9-.574-14.9-.24 0-.391-2.853-.391-7.4 0-4.667-.148-7.4-.4-7.4-.233 0-.4-1.333-.4-3.2 0-1.867-.167-3.2-.4-3.2-.22 0-.4-.9-.4-2s-.18-2-.4-2c-.22 0-.4-.799-.4-1.776s-.18-1.888-.4-2.024c-.22-.136-.4-.787-.4-1.447 0-.698-.167-1.097-.4-.953-.227.14-.4-.196-.4-.776 0-.563-.18-1.024-.4-1.024-.22 0-.4-.324-.4-.72 0-.894-.894-2.873-1.3-2.877-.165-.002-.3-.323-.3-.715 0-.391-.36-.971-.8-1.288-.44-.317-.8-.815-.8-1.106 0-.291-.462-1.016-1.026-1.611-.565-.596-1.275-1.533-1.578-2.083-.304-.55-1.02-1.36-1.592-1.8-.572-.44-1.656-1.385-2.409-2.1-.753-.715-1.578-1.3-1.835-1.3-.256 0-.757-.315-1.113-.7-.356-.385-.917-.758-1.247-.83-.33-.071-.66-.296-.733-.5-.074-.203-.479-.37-.9-.37-.422 0-.767-.158-.767-.35 0-.327-2.234-1.022-2.9-.904-.165.03-.3-.087-.3-.259 0-.172-.46-.351-1.021-.397-.562-.047-1.36-.266-1.774-.487-.414-.222-1.124-.403-1.579-.403-.454 0-.826-.18-.826-.4 0-.22-.709-.4-1.576-.4-.867 0-1.688-.18-1.824-.4-.136-.22-1.227-.4-2.424-.4-1.197 0-2.176-.18-2.176-.4 0-.231-1.259-.4-2.976-.4-1.637 0-3.088-.18-3.224-.4-.252-.407-21.909-.535-22.9-.135" fill="#832494"/></g></svg>